<mxfile host="app.diagrams.net" modified="2021-08-03T21:48:36.899Z" agent="5.0 (Windows NT 10.0; Win64; x64) AppleWebKit/537.36 (KHTML, like Gecko) Chrome/93.0.4577.18 Safari/537.36" etag="0hMju3GUyoDhQHq_Kgmy" version="14.9.3" type="github" pages="2">
  <diagram id="CLH7kSl6G1hKoGnGeltM" name="Conceitual">
    <mxGraphModel dx="824" dy="1265" grid="1" gridSize="10" guides="1" tooltips="1" connect="1" arrows="1" fold="1" page="1" pageScale="1" pageWidth="850" pageHeight="1100" math="0" shadow="0">
      <root>
        <mxCell id="0" />
        <mxCell id="1" parent="0" />
        <mxCell id="WC5bWUvSY3aZZtKGnbWr-9" style="edgeStyle=orthogonalEdgeStyle;rounded=0;orthogonalLoop=1;jettySize=auto;html=1;entryX=0;entryY=0.5;entryDx=0;entryDy=0;endArrow=none;endFill=0;" parent="1" source="WC5bWUvSY3aZZtKGnbWr-1" target="WC5bWUvSY3aZZtKGnbWr-2" edge="1">
          <mxGeometry relative="1" as="geometry" />
        </mxCell>
        <mxCell id="WC5bWUvSY3aZZtKGnbWr-17" style="edgeStyle=orthogonalEdgeStyle;rounded=0;orthogonalLoop=1;jettySize=auto;html=1;endArrow=none;endFill=0;" parent="1" source="WC5bWUvSY3aZZtKGnbWr-1" target="WC5bWUvSY3aZZtKGnbWr-12" edge="1">
          <mxGeometry relative="1" as="geometry" />
        </mxCell>
        <mxCell id="WC5bWUvSY3aZZtKGnbWr-1" value="veterinario" style="rounded=0;whiteSpace=wrap;html=1;" parent="1" vertex="1">
          <mxGeometry x="280" y="27.5" width="130" height="55" as="geometry" />
        </mxCell>
        <mxCell id="WC5bWUvSY3aZZtKGnbWr-2" value="possui" style="rhombus;whiteSpace=wrap;html=1;" parent="1" vertex="1">
          <mxGeometry x="475" y="20" width="140" height="70" as="geometry" />
        </mxCell>
        <mxCell id="WC5bWUvSY3aZZtKGnbWr-6" value="1" style="text;html=1;align=center;verticalAlign=middle;resizable=0;points=[];autosize=1;strokeColor=none;" parent="1" vertex="1">
          <mxGeometry x="260" y="32.5" width="20" height="20" as="geometry" />
        </mxCell>
        <mxCell id="WC5bWUvSY3aZZtKGnbWr-7" value="N" style="text;html=1;align=center;verticalAlign=middle;resizable=0;points=[];autosize=1;strokeColor=none;" parent="1" vertex="1">
          <mxGeometry x="410" y="32.5" width="20" height="20" as="geometry" />
        </mxCell>
        <mxCell id="WC5bWUvSY3aZZtKGnbWr-10" value="atendimento" style="rounded=0;whiteSpace=wrap;html=1;" parent="1" vertex="1">
          <mxGeometry x="30" y="280" width="130" height="55" as="geometry" />
        </mxCell>
        <mxCell id="WC5bWUvSY3aZZtKGnbWr-18" style="edgeStyle=orthogonalEdgeStyle;rounded=0;orthogonalLoop=1;jettySize=auto;html=1;endArrow=none;endFill=0;" parent="1" source="WC5bWUvSY3aZZtKGnbWr-12" target="WC5bWUvSY3aZZtKGnbWr-10" edge="1">
          <mxGeometry relative="1" as="geometry" />
        </mxCell>
        <mxCell id="WC5bWUvSY3aZZtKGnbWr-12" value="possui" style="rhombus;whiteSpace=wrap;html=1;" parent="1" vertex="1">
          <mxGeometry x="25" y="20" width="140" height="70" as="geometry" />
        </mxCell>
        <mxCell id="WC5bWUvSY3aZZtKGnbWr-15" value="1" style="text;html=1;align=center;verticalAlign=middle;resizable=0;points=[];autosize=1;strokeColor=none;" parent="1" vertex="1">
          <mxGeometry x="85" y="82.5" width="20" height="20" as="geometry" />
        </mxCell>
        <mxCell id="WC5bWUvSY3aZZtKGnbWr-16" value="N" style="text;html=1;align=center;verticalAlign=middle;resizable=0;points=[];autosize=1;strokeColor=none;" parent="1" vertex="1">
          <mxGeometry x="100" y="260" width="20" height="20" as="geometry" />
        </mxCell>
        <mxCell id="WC5bWUvSY3aZZtKGnbWr-23" style="edgeStyle=orthogonalEdgeStyle;rounded=0;orthogonalLoop=1;jettySize=auto;html=1;entryX=0.5;entryY=0;entryDx=0;entryDy=0;endArrow=none;endFill=0;" parent="1" source="WC5bWUvSY3aZZtKGnbWr-21" target="WC5bWUvSY3aZZtKGnbWr-22" edge="1">
          <mxGeometry relative="1" as="geometry">
            <Array as="points">
              <mxPoint x="495" y="350" />
              <mxPoint x="495" y="350" />
            </Array>
          </mxGeometry>
        </mxCell>
        <mxCell id="WC5bWUvSY3aZZtKGnbWr-29" style="edgeStyle=orthogonalEdgeStyle;rounded=0;orthogonalLoop=1;jettySize=auto;html=1;entryX=1;entryY=0.5;entryDx=0;entryDy=0;endArrow=none;endFill=0;" parent="1" source="WC5bWUvSY3aZZtKGnbWr-21" target="WC5bWUvSY3aZZtKGnbWr-28" edge="1">
          <mxGeometry relative="1" as="geometry" />
        </mxCell>
        <mxCell id="WC5bWUvSY3aZZtKGnbWr-35" style="edgeStyle=orthogonalEdgeStyle;rounded=0;orthogonalLoop=1;jettySize=auto;html=1;entryX=0;entryY=0.5;entryDx=0;entryDy=0;endArrow=none;endFill=0;exitX=1;exitY=0.5;exitDx=0;exitDy=0;" parent="1" source="WC5bWUvSY3aZZtKGnbWr-21" target="WC5bWUvSY3aZZtKGnbWr-33" edge="1">
          <mxGeometry relative="1" as="geometry">
            <Array as="points">
              <mxPoint x="700" y="308" />
            </Array>
          </mxGeometry>
        </mxCell>
        <mxCell id="z2X8hfH6RMnZPmDzIgay-2" value="" style="edgeStyle=orthogonalEdgeStyle;rounded=0;orthogonalLoop=1;jettySize=auto;html=1;endArrow=none;endFill=0;" parent="1" source="WC5bWUvSY3aZZtKGnbWr-21" target="WC5bWUvSY3aZZtKGnbWr-28" edge="1">
          <mxGeometry relative="1" as="geometry" />
        </mxCell>
        <mxCell id="WC5bWUvSY3aZZtKGnbWr-21" value="pet" style="rounded=0;whiteSpace=wrap;html=1;" parent="1" vertex="1">
          <mxGeometry x="430" y="280" width="130" height="55" as="geometry" />
        </mxCell>
        <mxCell id="WC5bWUvSY3aZZtKGnbWr-25" style="edgeStyle=orthogonalEdgeStyle;rounded=0;orthogonalLoop=1;jettySize=auto;html=1;endArrow=none;endFill=0;" parent="1" source="WC5bWUvSY3aZZtKGnbWr-22" target="WC5bWUvSY3aZZtKGnbWr-24" edge="1">
          <mxGeometry relative="1" as="geometry" />
        </mxCell>
        <mxCell id="WC5bWUvSY3aZZtKGnbWr-22" value="possui" style="rhombus;whiteSpace=wrap;html=1;" parent="1" vertex="1">
          <mxGeometry x="425" y="407.5" width="140" height="70" as="geometry" />
        </mxCell>
        <mxCell id="WC5bWUvSY3aZZtKGnbWr-24" value="dono" style="rounded=0;whiteSpace=wrap;html=1;" parent="1" vertex="1">
          <mxGeometry x="430" y="550" width="130" height="55" as="geometry" />
        </mxCell>
        <mxCell id="WC5bWUvSY3aZZtKGnbWr-26" value="1" style="text;html=1;align=center;verticalAlign=middle;resizable=0;points=[];autosize=1;strokeColor=none;" parent="1" vertex="1">
          <mxGeometry x="470" y="530" width="20" height="20" as="geometry" />
        </mxCell>
        <mxCell id="WC5bWUvSY3aZZtKGnbWr-27" value="N" style="text;html=1;align=center;verticalAlign=middle;resizable=0;points=[];autosize=1;strokeColor=none;" parent="1" vertex="1">
          <mxGeometry x="475" y="335" width="20" height="20" as="geometry" />
        </mxCell>
        <mxCell id="WC5bWUvSY3aZZtKGnbWr-30" style="edgeStyle=orthogonalEdgeStyle;rounded=0;orthogonalLoop=1;jettySize=auto;html=1;entryX=1;entryY=0.5;entryDx=0;entryDy=0;endArrow=none;endFill=0;" parent="1" source="WC5bWUvSY3aZZtKGnbWr-28" target="WC5bWUvSY3aZZtKGnbWr-10" edge="1">
          <mxGeometry relative="1" as="geometry" />
        </mxCell>
        <mxCell id="WC5bWUvSY3aZZtKGnbWr-28" value="possui" style="rhombus;whiteSpace=wrap;html=1;" parent="1" vertex="1">
          <mxGeometry x="245" y="272.5" width="140" height="70" as="geometry" />
        </mxCell>
        <mxCell id="WC5bWUvSY3aZZtKGnbWr-31" value="N" style="text;html=1;align=center;verticalAlign=middle;resizable=0;points=[];autosize=1;strokeColor=none;" parent="1" vertex="1">
          <mxGeometry x="165" y="290" width="20" height="20" as="geometry" />
        </mxCell>
        <mxCell id="WC5bWUvSY3aZZtKGnbWr-32" value="1" style="text;html=1;align=center;verticalAlign=middle;resizable=0;points=[];autosize=1;strokeColor=none;" parent="1" vertex="1">
          <mxGeometry x="410" y="290" width="20" height="20" as="geometry" />
        </mxCell>
        <mxCell id="z2X8hfH6RMnZPmDzIgay-5" style="edgeStyle=orthogonalEdgeStyle;rounded=0;orthogonalLoop=1;jettySize=auto;html=1;endArrow=none;endFill=0;" parent="1" source="WC5bWUvSY3aZZtKGnbWr-33" target="WC5bWUvSY3aZZtKGnbWr-37" edge="1">
          <mxGeometry relative="1" as="geometry" />
        </mxCell>
        <mxCell id="WC5bWUvSY3aZZtKGnbWr-33" value="possui" style="rhombus;whiteSpace=wrap;html=1;" parent="1" vertex="1">
          <mxGeometry x="700" y="272.5" width="140" height="70" as="geometry" />
        </mxCell>
        <mxCell id="z2X8hfH6RMnZPmDzIgay-7" style="edgeStyle=orthogonalEdgeStyle;rounded=0;orthogonalLoop=1;jettySize=auto;html=1;entryX=0.5;entryY=0;entryDx=0;entryDy=0;endArrow=none;endFill=0;" parent="1" source="WC5bWUvSY3aZZtKGnbWr-37" target="z2X8hfH6RMnZPmDzIgay-6" edge="1">
          <mxGeometry relative="1" as="geometry" />
        </mxCell>
        <mxCell id="WC5bWUvSY3aZZtKGnbWr-37" value="raca" style="rounded=0;whiteSpace=wrap;html=1;" parent="1" vertex="1">
          <mxGeometry x="705" y="415" width="130" height="55" as="geometry" />
        </mxCell>
        <mxCell id="WC5bWUvSY3aZZtKGnbWr-49" value="N" style="text;html=1;align=center;verticalAlign=middle;resizable=0;points=[];autosize=1;strokeColor=none;" parent="1" vertex="1">
          <mxGeometry x="560" y="290" width="20" height="20" as="geometry" />
        </mxCell>
        <mxCell id="z2X8hfH6RMnZPmDzIgay-9" style="edgeStyle=orthogonalEdgeStyle;rounded=0;orthogonalLoop=1;jettySize=auto;html=1;endArrow=none;endFill=0;" parent="1" source="z2X8hfH6RMnZPmDzIgay-6" target="z2X8hfH6RMnZPmDzIgay-8" edge="1">
          <mxGeometry relative="1" as="geometry" />
        </mxCell>
        <mxCell id="z2X8hfH6RMnZPmDzIgay-6" value="possui" style="rhombus;whiteSpace=wrap;html=1;" parent="1" vertex="1">
          <mxGeometry x="700" y="525" width="140" height="70" as="geometry" />
        </mxCell>
        <mxCell id="z2X8hfH6RMnZPmDzIgay-8" value="tipoPet" style="rounded=0;whiteSpace=wrap;html=1;" parent="1" vertex="1">
          <mxGeometry x="705" y="660" width="130" height="55" as="geometry" />
        </mxCell>
        <mxCell id="z2X8hfH6RMnZPmDzIgay-11" style="edgeStyle=orthogonalEdgeStyle;rounded=0;orthogonalLoop=1;jettySize=auto;html=1;entryX=1;entryY=0.5;entryDx=0;entryDy=0;endArrow=none;endFill=0;" parent="1" source="z2X8hfH6RMnZPmDzIgay-10" target="WC5bWUvSY3aZZtKGnbWr-2" edge="1">
          <mxGeometry relative="1" as="geometry" />
        </mxCell>
        <mxCell id="z2X8hfH6RMnZPmDzIgay-10" value="clinica" style="rounded=0;whiteSpace=wrap;html=1;" parent="1" vertex="1">
          <mxGeometry x="700" y="27.5" width="130" height="55" as="geometry" />
        </mxCell>
        <mxCell id="z2X8hfH6RMnZPmDzIgay-12" value="1" style="text;html=1;align=center;verticalAlign=middle;resizable=0;points=[];autosize=1;strokeColor=none;" parent="1" vertex="1">
          <mxGeometry x="680" y="32.5" width="20" height="20" as="geometry" />
        </mxCell>
        <mxCell id="z2X8hfH6RMnZPmDzIgay-13" value="1" style="text;html=1;align=center;verticalAlign=middle;resizable=0;points=[];autosize=1;strokeColor=none;" parent="1" vertex="1">
          <mxGeometry x="750" y="395" width="20" height="20" as="geometry" />
        </mxCell>
        <mxCell id="z2X8hfH6RMnZPmDzIgay-14" value="N" style="text;html=1;align=center;verticalAlign=middle;resizable=0;points=[];autosize=1;strokeColor=none;" parent="1" vertex="1">
          <mxGeometry x="750" y="470" width="20" height="20" as="geometry" />
        </mxCell>
        <mxCell id="z2X8hfH6RMnZPmDzIgay-16" value="1" style="text;html=1;align=center;verticalAlign=middle;resizable=0;points=[];autosize=1;strokeColor=none;" parent="1" vertex="1">
          <mxGeometry x="750" y="640" width="20" height="20" as="geometry" />
        </mxCell>
      </root>
    </mxGraphModel>
  </diagram>
  <diagram id="JHaQO3JXYBmhfAEdiqvD" name="Logico">
    <mxGraphModel dx="700" dy="1075" grid="1" gridSize="10" guides="1" tooltips="1" connect="1" arrows="1" fold="1" page="1" pageScale="1" pageWidth="827" pageHeight="1169" math="0" shadow="0">
      <root>
        <mxCell id="4b2CaZ4xsnaHcOKOCQuG-0" />
        <mxCell id="4b2CaZ4xsnaHcOKOCQuG-1" parent="4b2CaZ4xsnaHcOKOCQuG-0" />
        <mxCell id="4b2CaZ4xsnaHcOKOCQuG-2" value="Dono" style="shape=table;startSize=30;container=1;collapsible=1;childLayout=tableLayout;fixedRows=1;rowLines=0;fontStyle=1;align=center;resizeLast=1;" parent="4b2CaZ4xsnaHcOKOCQuG-1" vertex="1">
          <mxGeometry x="70" y="670" width="180" height="100" as="geometry" />
        </mxCell>
        <mxCell id="4b2CaZ4xsnaHcOKOCQuG-3" value="" style="shape=partialRectangle;collapsible=0;dropTarget=0;pointerEvents=0;fillColor=none;top=0;left=0;bottom=1;right=0;points=[[0,0.5],[1,0.5]];portConstraint=eastwest;" parent="4b2CaZ4xsnaHcOKOCQuG-2" vertex="1">
          <mxGeometry y="30" width="180" height="30" as="geometry" />
        </mxCell>
        <mxCell id="4b2CaZ4xsnaHcOKOCQuG-4" value="PK" style="shape=partialRectangle;connectable=0;fillColor=none;top=0;left=0;bottom=0;right=0;fontStyle=1;overflow=hidden;" parent="4b2CaZ4xsnaHcOKOCQuG-3" vertex="1">
          <mxGeometry width="30" height="30" as="geometry" />
        </mxCell>
        <mxCell id="4b2CaZ4xsnaHcOKOCQuG-5" value="Iddono" style="shape=partialRectangle;connectable=0;fillColor=none;top=0;left=0;bottom=0;right=0;align=left;spacingLeft=6;fontStyle=5;overflow=hidden;" parent="4b2CaZ4xsnaHcOKOCQuG-3" vertex="1">
          <mxGeometry x="30" width="150" height="30" as="geometry" />
        </mxCell>
        <mxCell id="4b2CaZ4xsnaHcOKOCQuG-6" value="" style="shape=partialRectangle;collapsible=0;dropTarget=0;pointerEvents=0;fillColor=none;top=0;left=0;bottom=0;right=0;points=[[0,0.5],[1,0.5]];portConstraint=eastwest;" parent="4b2CaZ4xsnaHcOKOCQuG-2" vertex="1">
          <mxGeometry y="60" width="180" height="30" as="geometry" />
        </mxCell>
        <mxCell id="4b2CaZ4xsnaHcOKOCQuG-7" value="" style="shape=partialRectangle;connectable=0;fillColor=none;top=0;left=0;bottom=0;right=0;editable=1;overflow=hidden;" parent="4b2CaZ4xsnaHcOKOCQuG-6" vertex="1">
          <mxGeometry width="30" height="30" as="geometry" />
        </mxCell>
        <mxCell id="4b2CaZ4xsnaHcOKOCQuG-8" value="nomeDono" style="shape=partialRectangle;connectable=0;fillColor=none;top=0;left=0;bottom=0;right=0;align=left;spacingLeft=6;overflow=hidden;" parent="4b2CaZ4xsnaHcOKOCQuG-6" vertex="1">
          <mxGeometry x="30" width="150" height="30" as="geometry" />
        </mxCell>
        <mxCell id="4b2CaZ4xsnaHcOKOCQuG-15" value="Pet" style="shape=table;startSize=30;container=1;collapsible=1;childLayout=tableLayout;fixedRows=1;rowLines=0;fontStyle=1;align=center;resizeLast=1;" parent="4b2CaZ4xsnaHcOKOCQuG-1" vertex="1">
          <mxGeometry x="560" y="510" width="180" height="160" as="geometry" />
        </mxCell>
        <mxCell id="4b2CaZ4xsnaHcOKOCQuG-16" value="" style="shape=partialRectangle;collapsible=0;dropTarget=0;pointerEvents=0;fillColor=none;top=0;left=0;bottom=0;right=0;points=[[0,0.5],[1,0.5]];portConstraint=eastwest;" parent="4b2CaZ4xsnaHcOKOCQuG-15" vertex="1">
          <mxGeometry y="30" width="180" height="30" as="geometry" />
        </mxCell>
        <mxCell id="4b2CaZ4xsnaHcOKOCQuG-17" value="PK" style="shape=partialRectangle;connectable=0;fillColor=none;top=0;left=0;bottom=0;right=0;fontStyle=1;overflow=hidden;" parent="4b2CaZ4xsnaHcOKOCQuG-16" vertex="1">
          <mxGeometry width="60" height="30" as="geometry" />
        </mxCell>
        <mxCell id="4b2CaZ4xsnaHcOKOCQuG-18" value="Idpet" style="shape=partialRectangle;connectable=0;fillColor=none;top=0;left=0;bottom=0;right=0;align=left;spacingLeft=6;fontStyle=5;overflow=hidden;" parent="4b2CaZ4xsnaHcOKOCQuG-16" vertex="1">
          <mxGeometry x="60" width="120" height="30" as="geometry" />
        </mxCell>
        <mxCell id="DQIefZmdi3jzsxEDgDK8-9" value="" style="shape=partialRectangle;collapsible=0;dropTarget=0;pointerEvents=0;fillColor=none;top=0;left=0;bottom=0;right=0;points=[[0,0.5],[1,0.5]];portConstraint=eastwest;" vertex="1" parent="4b2CaZ4xsnaHcOKOCQuG-15">
          <mxGeometry y="60" width="180" height="30" as="geometry" />
        </mxCell>
        <mxCell id="DQIefZmdi3jzsxEDgDK8-10" value="FK" style="shape=partialRectangle;connectable=0;fillColor=none;top=0;left=0;bottom=0;right=0;fontStyle=1;overflow=hidden;" vertex="1" parent="DQIefZmdi3jzsxEDgDK8-9">
          <mxGeometry width="60" height="30" as="geometry" />
        </mxCell>
        <mxCell id="DQIefZmdi3jzsxEDgDK8-11" value="Idraca" style="shape=partialRectangle;connectable=0;fillColor=none;top=0;left=0;bottom=0;right=0;align=left;spacingLeft=6;fontStyle=5;overflow=hidden;" vertex="1" parent="DQIefZmdi3jzsxEDgDK8-9">
          <mxGeometry x="60" width="120" height="30" as="geometry" />
        </mxCell>
        <mxCell id="4b2CaZ4xsnaHcOKOCQuG-19" value="" style="shape=partialRectangle;collapsible=0;dropTarget=0;pointerEvents=0;fillColor=none;top=0;left=0;bottom=1;right=0;points=[[0,0.5],[1,0.5]];portConstraint=eastwest;" parent="4b2CaZ4xsnaHcOKOCQuG-15" vertex="1">
          <mxGeometry y="90" width="180" height="30" as="geometry" />
        </mxCell>
        <mxCell id="4b2CaZ4xsnaHcOKOCQuG-20" value="FK" style="shape=partialRectangle;connectable=0;fillColor=none;top=0;left=0;bottom=0;right=0;fontStyle=1;overflow=hidden;" parent="4b2CaZ4xsnaHcOKOCQuG-19" vertex="1">
          <mxGeometry width="60" height="30" as="geometry" />
        </mxCell>
        <mxCell id="4b2CaZ4xsnaHcOKOCQuG-21" value="Iddono" style="shape=partialRectangle;connectable=0;fillColor=none;top=0;left=0;bottom=0;right=0;align=left;spacingLeft=6;fontStyle=5;overflow=hidden;" parent="4b2CaZ4xsnaHcOKOCQuG-19" vertex="1">
          <mxGeometry x="60" width="120" height="30" as="geometry" />
        </mxCell>
        <mxCell id="4b2CaZ4xsnaHcOKOCQuG-22" value="" style="shape=partialRectangle;collapsible=0;dropTarget=0;pointerEvents=0;fillColor=none;top=0;left=0;bottom=0;right=0;points=[[0,0.5],[1,0.5]];portConstraint=eastwest;" parent="4b2CaZ4xsnaHcOKOCQuG-15" vertex="1">
          <mxGeometry y="120" width="180" height="30" as="geometry" />
        </mxCell>
        <mxCell id="4b2CaZ4xsnaHcOKOCQuG-23" value="" style="shape=partialRectangle;connectable=0;fillColor=none;top=0;left=0;bottom=0;right=0;editable=1;overflow=hidden;" parent="4b2CaZ4xsnaHcOKOCQuG-22" vertex="1">
          <mxGeometry width="60" height="30" as="geometry" />
        </mxCell>
        <mxCell id="4b2CaZ4xsnaHcOKOCQuG-24" value="NomePet" style="shape=partialRectangle;connectable=0;fillColor=none;top=0;left=0;bottom=0;right=0;align=left;spacingLeft=6;overflow=hidden;" parent="4b2CaZ4xsnaHcOKOCQuG-22" vertex="1">
          <mxGeometry x="60" width="120" height="30" as="geometry" />
        </mxCell>
        <mxCell id="wF_s0j-ANV9XIuA48Wru-3" value="Clinica" style="shape=table;startSize=30;container=1;collapsible=1;childLayout=tableLayout;fixedRows=1;rowLines=0;fontStyle=1;align=center;resizeLast=1;" vertex="1" parent="4b2CaZ4xsnaHcOKOCQuG-1">
          <mxGeometry x="70" y="40" width="180" height="130" as="geometry" />
        </mxCell>
        <mxCell id="wF_s0j-ANV9XIuA48Wru-4" value="" style="shape=partialRectangle;collapsible=0;dropTarget=0;pointerEvents=0;fillColor=none;top=0;left=0;bottom=0;right=0;points=[[0,0.5],[1,0.5]];portConstraint=eastwest;" vertex="1" parent="wF_s0j-ANV9XIuA48Wru-3">
          <mxGeometry y="30" width="180" height="30" as="geometry" />
        </mxCell>
        <mxCell id="wF_s0j-ANV9XIuA48Wru-5" value="PK" style="shape=partialRectangle;connectable=0;fillColor=none;top=0;left=0;bottom=0;right=0;fontStyle=1;overflow=hidden;" vertex="1" parent="wF_s0j-ANV9XIuA48Wru-4">
          <mxGeometry width="60" height="30" as="geometry" />
        </mxCell>
        <mxCell id="wF_s0j-ANV9XIuA48Wru-6" value="Idclinica" style="shape=partialRectangle;connectable=0;fillColor=none;top=0;left=0;bottom=0;right=0;align=left;spacingLeft=6;fontStyle=5;overflow=hidden;" vertex="1" parent="wF_s0j-ANV9XIuA48Wru-4">
          <mxGeometry x="60" width="120" height="30" as="geometry" />
        </mxCell>
        <mxCell id="wF_s0j-ANV9XIuA48Wru-7" value="" style="shape=partialRectangle;collapsible=0;dropTarget=0;pointerEvents=0;fillColor=none;top=0;left=0;bottom=1;right=0;points=[[0,0.5],[1,0.5]];portConstraint=eastwest;" vertex="1" parent="wF_s0j-ANV9XIuA48Wru-3">
          <mxGeometry y="60" width="180" height="30" as="geometry" />
        </mxCell>
        <mxCell id="wF_s0j-ANV9XIuA48Wru-8" value="FK" style="shape=partialRectangle;connectable=0;fillColor=none;top=0;left=0;bottom=0;right=0;fontStyle=1;overflow=hidden;" vertex="1" parent="wF_s0j-ANV9XIuA48Wru-7">
          <mxGeometry width="60" height="30" as="geometry" />
        </mxCell>
        <mxCell id="wF_s0j-ANV9XIuA48Wru-9" value="Idveterinario" style="shape=partialRectangle;connectable=0;fillColor=none;top=0;left=0;bottom=0;right=0;align=left;spacingLeft=6;fontStyle=5;overflow=hidden;" vertex="1" parent="wF_s0j-ANV9XIuA48Wru-7">
          <mxGeometry x="60" width="120" height="30" as="geometry" />
        </mxCell>
        <mxCell id="wF_s0j-ANV9XIuA48Wru-10" value="" style="shape=partialRectangle;collapsible=0;dropTarget=0;pointerEvents=0;fillColor=none;top=0;left=0;bottom=0;right=0;points=[[0,0.5],[1,0.5]];portConstraint=eastwest;" vertex="1" parent="wF_s0j-ANV9XIuA48Wru-3">
          <mxGeometry y="90" width="180" height="30" as="geometry" />
        </mxCell>
        <mxCell id="wF_s0j-ANV9XIuA48Wru-11" value="" style="shape=partialRectangle;connectable=0;fillColor=none;top=0;left=0;bottom=0;right=0;editable=1;overflow=hidden;" vertex="1" parent="wF_s0j-ANV9XIuA48Wru-10">
          <mxGeometry width="60" height="30" as="geometry" />
        </mxCell>
        <mxCell id="wF_s0j-ANV9XIuA48Wru-12" value="Endereco" style="shape=partialRectangle;connectable=0;fillColor=none;top=0;left=0;bottom=0;right=0;align=left;spacingLeft=6;overflow=hidden;" vertex="1" parent="wF_s0j-ANV9XIuA48Wru-10">
          <mxGeometry x="60" width="120" height="30" as="geometry" />
        </mxCell>
        <mxCell id="wF_s0j-ANV9XIuA48Wru-13" value="Veterinario" style="shape=table;startSize=30;container=1;collapsible=1;childLayout=tableLayout;fixedRows=1;rowLines=0;fontStyle=1;align=center;resizeLast=1;" vertex="1" parent="4b2CaZ4xsnaHcOKOCQuG-1">
          <mxGeometry x="560" y="190" width="180" height="130" as="geometry" />
        </mxCell>
        <mxCell id="wF_s0j-ANV9XIuA48Wru-14" value="" style="shape=partialRectangle;collapsible=0;dropTarget=0;pointerEvents=0;fillColor=none;top=0;left=0;bottom=0;right=0;points=[[0,0.5],[1,0.5]];portConstraint=eastwest;" vertex="1" parent="wF_s0j-ANV9XIuA48Wru-13">
          <mxGeometry y="30" width="180" height="30" as="geometry" />
        </mxCell>
        <mxCell id="wF_s0j-ANV9XIuA48Wru-15" value="PK" style="shape=partialRectangle;connectable=0;fillColor=none;top=0;left=0;bottom=0;right=0;fontStyle=1;overflow=hidden;" vertex="1" parent="wF_s0j-ANV9XIuA48Wru-14">
          <mxGeometry width="60" height="30" as="geometry" />
        </mxCell>
        <mxCell id="wF_s0j-ANV9XIuA48Wru-16" value="Idveterinario" style="shape=partialRectangle;connectable=0;fillColor=none;top=0;left=0;bottom=0;right=0;align=left;spacingLeft=6;fontStyle=5;overflow=hidden;" vertex="1" parent="wF_s0j-ANV9XIuA48Wru-14">
          <mxGeometry x="60" width="120" height="30" as="geometry" />
        </mxCell>
        <mxCell id="Is1SStveSbqIHUu6v_c6-2" value="" style="shape=partialRectangle;collapsible=0;dropTarget=0;pointerEvents=0;fillColor=none;top=0;left=0;bottom=0;right=0;points=[[0,0.5],[1,0.5]];portConstraint=eastwest;" vertex="1" parent="wF_s0j-ANV9XIuA48Wru-13">
          <mxGeometry y="60" width="180" height="30" as="geometry" />
        </mxCell>
        <mxCell id="Is1SStveSbqIHUu6v_c6-3" value="FK" style="shape=partialRectangle;connectable=0;fillColor=none;top=0;left=0;bottom=0;right=0;fontStyle=1;overflow=hidden;" vertex="1" parent="Is1SStveSbqIHUu6v_c6-2">
          <mxGeometry width="60" height="30" as="geometry" />
        </mxCell>
        <mxCell id="Is1SStveSbqIHUu6v_c6-4" value="Idatendimento" style="shape=partialRectangle;connectable=0;fillColor=none;top=0;left=0;bottom=0;right=0;align=left;spacingLeft=6;fontStyle=5;overflow=hidden;" vertex="1" parent="Is1SStveSbqIHUu6v_c6-2">
          <mxGeometry x="60" width="120" height="30" as="geometry" />
        </mxCell>
        <mxCell id="wF_s0j-ANV9XIuA48Wru-20" value="" style="shape=partialRectangle;collapsible=0;dropTarget=0;pointerEvents=0;fillColor=none;top=0;left=0;bottom=0;right=0;points=[[0,0.5],[1,0.5]];portConstraint=eastwest;" vertex="1" parent="wF_s0j-ANV9XIuA48Wru-13">
          <mxGeometry y="90" width="180" height="30" as="geometry" />
        </mxCell>
        <mxCell id="wF_s0j-ANV9XIuA48Wru-21" value="" style="shape=partialRectangle;connectable=0;fillColor=none;top=0;left=0;bottom=0;right=0;editable=1;overflow=hidden;" vertex="1" parent="wF_s0j-ANV9XIuA48Wru-20">
          <mxGeometry width="60" height="30" as="geometry" />
        </mxCell>
        <mxCell id="wF_s0j-ANV9XIuA48Wru-22" value="NomeVeterinario" style="shape=partialRectangle;connectable=0;fillColor=none;top=0;left=0;bottom=0;right=0;align=left;spacingLeft=6;overflow=hidden;" vertex="1" parent="wF_s0j-ANV9XIuA48Wru-20">
          <mxGeometry x="60" width="120" height="30" as="geometry" />
        </mxCell>
        <mxCell id="wF_s0j-ANV9XIuA48Wru-34" value="Atendimento" style="shape=table;startSize=30;container=1;collapsible=1;childLayout=tableLayout;fixedRows=1;rowLines=0;fontStyle=1;align=center;resizeLast=1;" vertex="1" parent="4b2CaZ4xsnaHcOKOCQuG-1">
          <mxGeometry x="70" y="240" width="180" height="130" as="geometry" />
        </mxCell>
        <mxCell id="wF_s0j-ANV9XIuA48Wru-35" value="" style="shape=partialRectangle;collapsible=0;dropTarget=0;pointerEvents=0;fillColor=none;top=0;left=0;bottom=0;right=0;points=[[0,0.5],[1,0.5]];portConstraint=eastwest;" vertex="1" parent="wF_s0j-ANV9XIuA48Wru-34">
          <mxGeometry y="30" width="180" height="30" as="geometry" />
        </mxCell>
        <mxCell id="wF_s0j-ANV9XIuA48Wru-36" value="PK" style="shape=partialRectangle;connectable=0;fillColor=none;top=0;left=0;bottom=0;right=0;fontStyle=1;overflow=hidden;" vertex="1" parent="wF_s0j-ANV9XIuA48Wru-35">
          <mxGeometry width="60" height="30" as="geometry" />
        </mxCell>
        <mxCell id="wF_s0j-ANV9XIuA48Wru-37" value="Idatendimento" style="shape=partialRectangle;connectable=0;fillColor=none;top=0;left=0;bottom=0;right=0;align=left;spacingLeft=6;fontStyle=5;overflow=hidden;" vertex="1" parent="wF_s0j-ANV9XIuA48Wru-35">
          <mxGeometry x="60" width="120" height="30" as="geometry" />
        </mxCell>
        <mxCell id="wF_s0j-ANV9XIuA48Wru-38" value="" style="shape=partialRectangle;collapsible=0;dropTarget=0;pointerEvents=0;fillColor=none;top=0;left=0;bottom=1;right=0;points=[[0,0.5],[1,0.5]];portConstraint=eastwest;" vertex="1" parent="wF_s0j-ANV9XIuA48Wru-34">
          <mxGeometry y="60" width="180" height="30" as="geometry" />
        </mxCell>
        <mxCell id="wF_s0j-ANV9XIuA48Wru-39" value="FK" style="shape=partialRectangle;connectable=0;fillColor=none;top=0;left=0;bottom=0;right=0;fontStyle=1;overflow=hidden;" vertex="1" parent="wF_s0j-ANV9XIuA48Wru-38">
          <mxGeometry width="60" height="30" as="geometry" />
        </mxCell>
        <mxCell id="wF_s0j-ANV9XIuA48Wru-40" value="Idpet" style="shape=partialRectangle;connectable=0;fillColor=none;top=0;left=0;bottom=0;right=0;align=left;spacingLeft=6;fontStyle=5;overflow=hidden;" vertex="1" parent="wF_s0j-ANV9XIuA48Wru-38">
          <mxGeometry x="60" width="120" height="30" as="geometry" />
        </mxCell>
        <mxCell id="wF_s0j-ANV9XIuA48Wru-41" value="" style="shape=partialRectangle;collapsible=0;dropTarget=0;pointerEvents=0;fillColor=none;top=0;left=0;bottom=0;right=0;points=[[0,0.5],[1,0.5]];portConstraint=eastwest;" vertex="1" parent="wF_s0j-ANV9XIuA48Wru-34">
          <mxGeometry y="90" width="180" height="30" as="geometry" />
        </mxCell>
        <mxCell id="wF_s0j-ANV9XIuA48Wru-42" value="" style="shape=partialRectangle;connectable=0;fillColor=none;top=0;left=0;bottom=0;right=0;editable=1;overflow=hidden;" vertex="1" parent="wF_s0j-ANV9XIuA48Wru-41">
          <mxGeometry width="60" height="30" as="geometry" />
        </mxCell>
        <mxCell id="wF_s0j-ANV9XIuA48Wru-43" value="Data" style="shape=partialRectangle;connectable=0;fillColor=none;top=0;left=0;bottom=0;right=0;align=left;spacingLeft=6;overflow=hidden;" vertex="1" parent="wF_s0j-ANV9XIuA48Wru-41">
          <mxGeometry x="60" width="120" height="30" as="geometry" />
        </mxCell>
        <mxCell id="wF_s0j-ANV9XIuA48Wru-77" value="Raca" style="shape=table;startSize=30;container=1;collapsible=1;childLayout=tableLayout;fixedRows=1;rowLines=0;fontStyle=1;align=center;resizeLast=1;" vertex="1" parent="4b2CaZ4xsnaHcOKOCQuG-1">
          <mxGeometry x="70" y="510" width="180" height="100" as="geometry" />
        </mxCell>
        <mxCell id="wF_s0j-ANV9XIuA48Wru-78" value="" style="shape=partialRectangle;collapsible=0;dropTarget=0;pointerEvents=0;fillColor=none;top=0;left=0;bottom=0;right=0;points=[[0,0.5],[1,0.5]];portConstraint=eastwest;" vertex="1" parent="wF_s0j-ANV9XIuA48Wru-77">
          <mxGeometry y="30" width="180" height="30" as="geometry" />
        </mxCell>
        <mxCell id="wF_s0j-ANV9XIuA48Wru-79" value="PK" style="shape=partialRectangle;connectable=0;fillColor=none;top=0;left=0;bottom=0;right=0;fontStyle=1;overflow=hidden;" vertex="1" parent="wF_s0j-ANV9XIuA48Wru-78">
          <mxGeometry width="60" height="30" as="geometry" />
        </mxCell>
        <mxCell id="wF_s0j-ANV9XIuA48Wru-80" value="Idraca" style="shape=partialRectangle;connectable=0;fillColor=none;top=0;left=0;bottom=0;right=0;align=left;spacingLeft=6;fontStyle=5;overflow=hidden;" vertex="1" parent="wF_s0j-ANV9XIuA48Wru-78">
          <mxGeometry x="60" width="120" height="30" as="geometry" />
        </mxCell>
        <mxCell id="wF_s0j-ANV9XIuA48Wru-84" value="" style="shape=partialRectangle;collapsible=0;dropTarget=0;pointerEvents=0;fillColor=none;top=0;left=0;bottom=0;right=0;points=[[0,0.5],[1,0.5]];portConstraint=eastwest;" vertex="1" parent="wF_s0j-ANV9XIuA48Wru-77">
          <mxGeometry y="60" width="180" height="30" as="geometry" />
        </mxCell>
        <mxCell id="wF_s0j-ANV9XIuA48Wru-85" value="" style="shape=partialRectangle;connectable=0;fillColor=none;top=0;left=0;bottom=0;right=0;editable=1;overflow=hidden;" vertex="1" parent="wF_s0j-ANV9XIuA48Wru-84">
          <mxGeometry width="60" height="30" as="geometry" />
        </mxCell>
        <mxCell id="wF_s0j-ANV9XIuA48Wru-86" value="tipoPet" style="shape=partialRectangle;connectable=0;fillColor=none;top=0;left=0;bottom=0;right=0;align=left;spacingLeft=6;overflow=hidden;" vertex="1" parent="wF_s0j-ANV9XIuA48Wru-84">
          <mxGeometry x="60" width="120" height="30" as="geometry" />
        </mxCell>
        <mxCell id="wF_s0j-ANV9XIuA48Wru-87" value="" style="edgeStyle=entityRelationEdgeStyle;fontSize=12;html=1;endArrow=ERoneToMany;entryX=0;entryY=0.5;entryDx=0;entryDy=0;exitX=1;exitY=0.5;exitDx=0;exitDy=0;" edge="1" parent="4b2CaZ4xsnaHcOKOCQuG-1" source="4b2CaZ4xsnaHcOKOCQuG-3" target="4b2CaZ4xsnaHcOKOCQuG-19">
          <mxGeometry width="100" height="100" relative="1" as="geometry">
            <mxPoint x="390" y="795" as="sourcePoint" />
            <mxPoint x="490" y="695" as="targetPoint" />
          </mxGeometry>
        </mxCell>
        <mxCell id="DQIefZmdi3jzsxEDgDK8-12" value="" style="edgeStyle=entityRelationEdgeStyle;fontSize=12;html=1;endArrow=ERoneToMany;exitX=1;exitY=0.5;exitDx=0;exitDy=0;entryX=0;entryY=0.5;entryDx=0;entryDy=0;" edge="1" parent="4b2CaZ4xsnaHcOKOCQuG-1" source="wF_s0j-ANV9XIuA48Wru-78" target="DQIefZmdi3jzsxEDgDK8-9">
          <mxGeometry width="100" height="100" relative="1" as="geometry">
            <mxPoint x="360" y="630" as="sourcePoint" />
            <mxPoint x="470" y="530" as="targetPoint" />
          </mxGeometry>
        </mxCell>
        <mxCell id="4iU9OCCwaCJ5opclgq_Q-0" value="" style="edgeStyle=entityRelationEdgeStyle;fontSize=12;html=1;endArrow=ERoneToMany;exitX=0;exitY=0.5;exitDx=0;exitDy=0;" edge="1" parent="4b2CaZ4xsnaHcOKOCQuG-1" source="4b2CaZ4xsnaHcOKOCQuG-16" target="wF_s0j-ANV9XIuA48Wru-38">
          <mxGeometry width="100" height="100" relative="1" as="geometry">
            <mxPoint x="380" y="450" as="sourcePoint" />
            <mxPoint x="480" y="350" as="targetPoint" />
          </mxGeometry>
        </mxCell>
        <mxCell id="Is1SStveSbqIHUu6v_c6-1" value="" style="edgeStyle=entityRelationEdgeStyle;fontSize=12;html=1;endArrow=ERoneToMany;exitX=1;exitY=0.5;exitDx=0;exitDy=0;" edge="1" parent="4b2CaZ4xsnaHcOKOCQuG-1" source="wF_s0j-ANV9XIuA48Wru-7" target="wF_s0j-ANV9XIuA48Wru-14">
          <mxGeometry width="100" height="100" relative="1" as="geometry">
            <mxPoint x="410" y="200" as="sourcePoint" />
            <mxPoint x="510" y="100" as="targetPoint" />
          </mxGeometry>
        </mxCell>
        <mxCell id="Is1SStveSbqIHUu6v_c6-5" value="" style="edgeStyle=entityRelationEdgeStyle;fontSize=12;html=1;endArrow=ERoneToMany;entryX=1;entryY=0.5;entryDx=0;entryDy=0;" edge="1" parent="4b2CaZ4xsnaHcOKOCQuG-1" source="Is1SStveSbqIHUu6v_c6-2" target="wF_s0j-ANV9XIuA48Wru-35">
          <mxGeometry width="100" height="100" relative="1" as="geometry">
            <mxPoint x="370" y="340" as="sourcePoint" />
            <mxPoint x="470" y="240" as="targetPoint" />
          </mxGeometry>
        </mxCell>
      </root>
    </mxGraphModel>
  </diagram>
</mxfile>
